<?xml version="1.0" encoding="UTF-8"?>
<svg id="Layer_2" data-name="Layer 2" xmlns="http://www.w3.org/2000/svg" xmlns:xlink="http://www.w3.org/1999/xlink" viewBox="0 0 382.97 84.26">
  <defs>
    <style>
      .cls-1 {
        fill: url(#linear-gradient);
      }

      .cls-2 {
        fill: none;
        stroke: url(#linear-gradient-2);
        stroke-miterlimit: 10;
      }

      .cls-3 {
        fill: #fff;
      }
    </style>
    <linearGradient id="linear-gradient" x1="191.48" y1="84.26" x2="191.48" y2="0" gradientUnits="userSpaceOnUse">
      <stop offset="0" stop-color="#3b86ff"/>
      <stop offset="1" stop-color="#85b7ff"/>
    </linearGradient>
    <linearGradient id="linear-gradient-2" x1="85.03" y1="42.13" x2="86.03" y2="42.13" gradientUnits="userSpaceOnUse">
      <stop offset="0" stop-color="#85b7ff"/>
      <stop offset="1" stop-color="#3b86ff"/>
    </linearGradient>
  </defs>
  <g id="Layer_1-2" data-name="Layer 1">
    <g>
      <rect class="cls-1" width="382.97" height="84.26" rx="18.32" ry="18.32"/>
      <g>
        <g>
          <path class="cls-3" d="M42.73,62.71c-3.51,0-7.02-1.34-10.1-3.89-3.83-3.18-6.56-7.89-7.67-13.25-1.11-5.36-.49-10.77,1.76-15.21,2.29-4.53,5.99-7.53,10.42-8.45,4.43-.92,9.01.36,12.92,3.6,3.83,3.18,6.56,7.89,7.67,13.25,1.11,5.36.49,10.77-1.76,15.21-2.29,4.53-5.99,7.53-10.42,8.44-.94.19-1.88.29-2.82.29h0ZM39.95,23.86c-.79,0-1.57.08-2.35.24h0c-3.75.78-6.9,3.36-8.88,7.27-2.02,3.99-2.58,8.87-1.57,13.75,1.01,4.87,3.47,9.13,6.91,11.98,3.37,2.8,7.29,3.91,11.04,3.13,3.75-.78,6.9-3.36,8.88-7.27,2.02-3.99,2.58-8.87,1.57-13.75-1.01-4.87-3.47-9.13-6.91-11.98-2.67-2.22-5.69-3.37-8.68-3.37h0Z"/>
          <path class="cls-3" d="M43.03,64.45c-12.31,0-22.32-10.01-22.32-22.32s10.01-22.32,22.32-22.32,22.32,10.01,22.32,22.32-10.01,22.32-22.32,22.32ZM43.03,22.04c-11.08,0-20.09,9.01-20.09,20.09s9.01,20.09,20.09,20.09,20.09-9.01,20.09-20.09-9.01-20.09-20.09-20.09Z"/>
          <path class="cls-3" d="M48.27,60.63c-1.69,0-3.49-.34-5.37-1.02-4.34-1.58-8.56-4.84-11.89-9.18-3.32-4.34-5.36-9.27-5.75-13.88-.4-4.79,1.02-8.68,4-10.96,2.98-2.28,7.11-2.63,11.63-.99,4.34,1.58,8.56,4.84,11.89,9.18,6.97,9.11,7.75,20.25,1.75,24.84-1.75,1.33-3.88,2.01-6.26,2.01h0ZM35.54,25.81c-1.89,0-3.57.52-4.92,1.55h0c-2.36,1.8-3.47,5-3.13,9,.35,4.19,2.24,8.7,5.3,12.71,3.07,4.01,6.93,7.01,10.88,8.44,3.77,1.37,7.15,1.14,9.51-.66,5.02-3.84,4.05-13.58-2.17-21.71-3.07-4.01-6.93-7.01-10.88-8.44-1.62-.59-3.17-.88-4.59-.88h0Z"/>
          <path class="cls-3" d="M60.13,47.14c-.38-4.59-2.41-9.5-5.72-13.83-3.31-4.33-7.52-7.57-11.85-9.14-4.5-1.63-8.62-1.28-11.6,1-2.98,2.28-4.4,6.16-4,10.94.38,4.59,2.41,9.5,5.72,13.83,3.31,4.33,7.52,7.57,11.85,9.14,1.86.67,3.66,1.01,5.33,1.01,2.38,0,4.52-.68,6.27-2.01,2.98-2.28,4.4-6.16,4-10.94ZM54.77,56.3c-2.35,1.8-5.72,2.04-9.48.68-3.94-1.43-7.78-4.41-10.83-8.4-2.79-3.65-4.59-7.72-5.15-11.58,1.53,2.17,4.43,5.69,8.75,8.46-.02.15-.03.31-.03.47,0,2.32,1.88,4.2,4.2,4.2s4.2-1.88,4.2-4.2-1.88-4.2-4.2-4.2c-1.41,0-2.66.7-3.42,1.76-1.27-.52-5.17-2.69-9.53-11,.37-2.38,1.41-4.29,3.04-5.54,1.35-1.03,3.03-1.55,4.92-1.55,1.42,0,2.95.29,4.56.87,3.94,1.43,7.78,4.41,10.83,8.4,3.05,3.99,4.92,8.48,5.27,12.66.33,3.99-.78,7.18-3.14,8.98Z"/>
        </g>
        <g>
          <path class="cls-3" d="M126.74,29.55c-1.58-.87-3.46-1.31-5.66-1.31h-7.76v21.83h7.69c2.22,0,4.12-.44,5.71-1.32s2.81-2.13,3.67-3.76c.85-1.63,1.28-3.58,1.28-5.84s-.43-4.2-1.28-5.83c-.86-1.63-2.07-2.88-3.65-3.76ZM126.48,43.13c-.48,1.05-1.19,1.83-2.15,2.34-.95.51-2.14.76-3.55.76h-2.99v-14.15h3.02c1.41,0,2.58.25,3.53.76s1.66,1.28,2.14,2.33.72,2.37.72,3.97-.24,2.94-.72,3.99Z"/>
          <path class="cls-3" d="M147.32,35.75c-.7-.69-1.51-1.21-2.44-1.56s-1.93-.53-3.02-.53c-1.57,0-2.94.35-4.12,1.06s-2.08,1.69-2.72,2.94c-.64,1.26-.97,2.72-.97,4.39s.32,3.16.97,4.41c.65,1.25,1.57,2.22,2.77,2.9s2.62,1.03,4.27,1.03c1.27,0,2.4-.19,3.39-.58.99-.39,1.82-.93,2.47-1.63.66-.7,1.12-1.52,1.37-2.45l-3.97-.57c-.16.42-.38.77-.68,1.06-.3.29-.66.51-1.08.66-.42.15-.9.23-1.41.23-.76,0-1.43-.16-2-.49-.57-.33-1.01-.81-1.33-1.44-.28-.57-.43-1.27-.46-2.07h11.15v-1.22c0-1.35-.19-2.54-.58-3.57-.39-1.03-.93-1.89-1.63-2.58ZM139.99,37.47c.53-.34,1.17-.51,1.92-.51s1.38.17,1.9.5c.51.34.9.81,1.17,1.43.18.43.28.93.34,1.46h-6.89c.05-.54.16-1.04.36-1.48.28-.6.68-1.06,1.21-1.41Z"/>
          <path class="cls-3" d="M164.87,34.62c-1-.64-2.12-.96-3.36-.96-.87,0-1.61.14-2.22.42-.61.28-1.11.64-1.5,1.08s-.7.88-.92,1.34h-.19v-2.61h-4.29v22.29h4.37v-8.67h.12c.23.47.55.92.94,1.35.4.43.9.78,1.5,1.06.61.28,1.33.42,2.17.42,1.28,0,2.42-.33,3.43-.98s1.8-1.6,2.38-2.84c.58-1.24.87-2.75.87-4.53s-.3-3.33-.89-4.56c-.6-1.23-1.39-2.17-2.4-2.81ZM163.27,44.52c-.27.73-.66,1.29-1.18,1.7-.52.41-1.16.61-1.92.61s-1.37-.2-1.9-.61c-.53-.4-.94-.97-1.22-1.69s-.42-1.57-.42-2.55.14-1.82.42-2.54c.28-.72.68-1.28,1.22-1.67.53-.4,1.17-.59,1.91-.59s1.4.2,1.92.6.91.96,1.18,1.68c.27.72.4,1.56.4,2.52s-.13,1.81-.4,2.54Z"/>
          <rect class="cls-3" x="171.07" y="28.24" width="4.37" height="21.83"/>
          <path class="cls-3" d="M190.56,34.71c-1.2-.7-2.6-1.05-4.23-1.05s-3.04.35-4.24,1.05c-1.2.7-2.12,1.68-2.77,2.93-.65,1.26-.97,2.72-.97,4.4s.32,3.12.97,4.37c.65,1.25,1.57,2.23,2.77,2.93s2.61,1.05,4.24,1.05,3.03-.35,4.23-1.05,2.12-1.67,2.77-2.93c.65-1.25.97-2.71.97-4.37s-.33-3.15-.97-4.4c-.65-1.25-1.57-2.23-2.77-2.93ZM189.46,44.57c-.27.74-.67,1.32-1.19,1.74-.52.42-1.17.63-1.93.63s-1.42-.21-1.94-.63c-.52-.42-.92-1-1.19-1.74s-.4-1.58-.4-2.54.13-1.82.4-2.55.67-1.31,1.19-1.73,1.17-.63,1.93-.63,1.4.21,1.93.63c.52.42.92,1,1.19,1.73s.41,1.58.41,2.55-.14,1.8-.41,2.54Z"/>
          <path class="cls-3" d="M204.81,42.2c-.33,1.03-.63,2.06-.89,3.11-.08.32-.16.66-.24.99-.07-.32-.15-.67-.22-.98-.22-1.04-.5-2.08-.83-3.11l-2.72-8.31h-4.63l6.11,16.2-.19.94c-.08.51-.24.91-.49,1.19-.25.29-.58.47-.98.55-.41.08-.88.06-1.41-.06l-.85-.12-.79,3.34c.35.1.78.18,1.28.24s1.03.1,1.59.1c1.04,0,1.92-.17,2.65-.5s1.35-.81,1.85-1.44.92-1.37,1.25-2.24l6.93-18.21h-4.58l-2.83,8.31Z"/>
          <path class="cls-3" d="M232.89,34.71c-1.2-.7-2.6-1.05-4.23-1.05s-3.04.35-4.24,1.05c-1.2.7-2.12,1.68-2.77,2.93-.65,1.26-.97,2.72-.97,4.4s.32,3.12.97,4.37c.65,1.25,1.57,2.23,2.77,2.93s2.61,1.05,4.24,1.05,3.03-.35,4.23-1.05,2.12-1.67,2.77-2.93c.65-1.25.97-2.71.97-4.37s-.33-3.15-.97-4.4c-.65-1.25-1.57-2.23-2.77-2.93ZM231.79,44.57c-.27.74-.67,1.32-1.19,1.74-.52.42-1.17.63-1.93.63s-1.42-.21-1.94-.63c-.52-.42-.92-1-1.19-1.74s-.4-1.58-.4-2.54.13-1.82.4-2.55.67-1.31,1.19-1.73,1.17-.63,1.93-.63,1.4.21,1.93.63c.52.42.92,1,1.19,1.73s.41,1.58.41,2.55-.14,1.8-.41,2.54Z"/>
          <path class="cls-3" d="M251.74,34.4c-.84-.49-1.82-.73-2.94-.73-1.39,0-2.52.38-3.41,1.13-.67.57-1.22,1.33-1.63,2.26l-.05-3.15h-4.16v16.17h4.37v-9.29c0-.74.13-1.37.4-1.88.27-.51.64-.9,1.11-1.16.47-.27,1.02-.4,1.63-.4.93,0,1.65.29,2.17.86.52.57.78,1.37.78,2.4v9.48h4.37v-10.25c0-1.29-.23-2.39-.69-3.31s-1.11-1.62-1.95-2.11Z"/>
          <path class="cls-3" d="M283.75,28.24h-5.05l-2.43,3.68c-.42.64-.78,1.24-1.08,1.77-.3.54-.57,1.06-.83,1.56-.07.14-.16.29-.23.44-.07-.14-.16-.3-.23-.44-.25-.5-.52-1.02-.81-1.56s-.64-1.13-1.05-1.77l-2.4-3.68h-5.17l7.14,10.66-7.85,11.17h5.16l3.13-4.58c.39-.57.71-1.06.97-1.49.25-.42.49-.83.7-1.22.11-.2.24-.43.36-.65.13.23.25.45.36.66.21.39.44.79.7,1.21.25.43.57.92.94,1.49l3.05,4.58h5.27l-7.71-11.29,7.07-10.53Z"/>
          <path class="cls-3" d="M299,34.4c-.84-.49-1.82-.73-2.94-.73-1.39,0-2.52.38-3.41,1.13-.67.57-1.22,1.33-1.63,2.26l-.05-3.15h-4.16v16.17h4.37v-9.29c0-.74.13-1.37.4-1.88.27-.51.64-.9,1.11-1.16.47-.27,1.02-.4,1.63-.4.93,0,1.65.29,2.17.86.52.57.78,1.37.78,2.4v9.48h4.37v-10.25c0-1.29-.23-2.39-.69-3.31s-1.11-1.62-1.95-2.11Z"/>
          <path class="cls-3" d="M316.76,34.71c-1.2-.7-2.6-1.05-4.23-1.05s-3.04.35-4.24,1.05c-1.2.7-2.12,1.68-2.77,2.93-.65,1.26-.97,2.72-.97,4.4s.32,3.12.97,4.37c.65,1.25,1.57,2.23,2.77,2.93s2.61,1.05,4.24,1.05,3.03-.35,4.23-1.05,2.12-1.67,2.77-2.93c.65-1.25.97-2.71.97-4.37s-.33-3.15-.97-4.4c-.65-1.25-1.57-2.23-2.77-2.93ZM315.65,44.57c-.27.74-.67,1.32-1.19,1.74-.52.42-1.17.63-1.93.63s-1.42-.21-1.94-.63c-.52-.42-.92-1-1.19-1.74s-.4-1.58-.4-2.54.13-1.82.4-2.55.67-1.31,1.19-1.73,1.17-.63,1.93-.63,1.4.21,1.93.63c.52.42.92,1,1.19,1.73s.41,1.58.41,2.55-.14,1.8-.41,2.54Z"/>
          <path class="cls-3" d="M334.14,36.52h-.12c-.22-.47-.53-.92-.93-1.35-.39-.43-.9-.79-1.5-1.08s-1.34-.42-2.21-.42c-1.23,0-2.35.32-3.35.96-1.01.64-1.81,1.58-2.4,2.81-.6,1.24-.89,2.76-.89,4.56s.29,3.29.87,4.53,1.38,2.19,2.38,2.84,2.15.98,3.43.98c.85,0,1.57-.14,2.18-.42.6-.28,1.1-.63,1.51-1.07.41-.43.72-.89.95-1.35h.16v2.56h4.31v-21.83h-4.37v8.28ZM333.83,44.53c-.28.72-.69,1.29-1.22,1.69-.53.41-1.17.61-1.92.61s-1.38-.2-1.9-.61c-.52-.4-.92-.97-1.19-1.7-.27-.73-.4-1.57-.4-2.54s.13-1.8.4-2.52.66-1.28,1.19-1.68c.52-.4,1.15-.6,1.9-.6s1.39.2,1.93.59c.53.39.94.95,1.22,1.67.28.72.42,1.56.42,2.54s-.14,1.83-.42,2.55Z"/>
          <path class="cls-3" d="M356.89,41.9c0-1.35-.19-2.54-.58-3.57-.39-1.03-.93-1.89-1.63-2.58-.7-.69-1.51-1.21-2.44-1.56s-1.93-.53-3.02-.53c-1.57,0-2.94.35-4.12,1.06s-2.08,1.69-2.72,2.94c-.64,1.26-.97,2.72-.97,4.39s.32,3.16.97,4.41c.65,1.25,1.57,2.22,2.77,2.9s2.62,1.03,4.27,1.03c1.27,0,2.4-.19,3.39-.58.99-.39,1.82-.93,2.47-1.63.66-.7,1.12-1.52,1.37-2.45l-3.97-.57c-.16.42-.38.77-.68,1.06-.3.29-.66.51-1.08.66-.42.15-.9.23-1.41.23-.76,0-1.43-.16-2-.49-.57-.33-1.01-.81-1.33-1.44-.28-.57-.43-1.27-.46-2.07h11.15v-1.22ZM347.35,37.47c.53-.34,1.17-.51,1.92-.51s1.38.17,1.9.5c.51.34.9.81,1.17,1.43.18.43.28.93.34,1.46h-6.89c.05-.54.16-1.04.36-1.48.28-.6.68-1.06,1.21-1.41Z"/>
        </g>
        <line class="cls-2" x1="85.53" y1="7.05" x2="85.53" y2="77.21"/>
      </g>
    </g>
  </g>
</svg>