<svg width="349" height="141" viewBox="0 0 349 141" fill="none" xmlns="http://www.w3.org/2000/svg">
<path d="M20.7386 45.7727L35.4048 70.5597H35.973L50.7102 45.7727H68.0753L45.8807 82.1364L68.5724 118.5H50.8878L35.973 93.6776H35.4048L20.4901 118.5H2.87642L25.6392 82.1364L3.30256 45.7727H20.7386ZM82.5355 85.6875V118.5H74.1548V63.9545H82.2514V72.4773H82.9616C84.2401 69.7074 86.1813 67.482 88.7855 65.8011C91.3897 64.0966 94.7514 63.2443 98.8707 63.2443C102.564 63.2443 105.795 64.0019 108.565 65.517C111.335 67.0085 113.49 69.2812 115.028 72.3352C116.567 75.3655 117.337 79.2008 117.337 83.8409V118.5H108.956V84.4091C108.956 80.1241 107.843 76.786 105.618 74.3949C103.393 71.9801 100.339 70.7727 96.456 70.7727C93.7808 70.7727 91.3897 71.3527 89.2827 72.5128C87.1993 73.6728 85.554 75.3655 84.3466 77.5909C83.1392 79.8163 82.5355 82.5152 82.5355 85.6875ZM149.81 119.636C144.886 119.636 140.565 118.464 136.848 116.121C133.155 113.777 130.267 110.498 128.184 106.284C126.124 102.07 125.094 97.1458 125.094 91.5114C125.094 85.8295 126.124 80.8698 128.184 76.6321C130.267 72.3944 133.155 69.1037 136.848 66.7599C140.565 64.4162 144.886 63.2443 149.81 63.2443C154.734 63.2443 159.043 64.4162 162.736 66.7599C166.453 69.1037 169.341 72.3944 171.401 76.6321C173.484 80.8698 174.526 85.8295 174.526 91.5114C174.526 97.1458 173.484 102.07 171.401 106.284C169.341 110.498 166.453 113.777 162.736 116.121C159.043 118.464 154.734 119.636 149.81 119.636ZM149.81 112.108C153.551 112.108 156.628 111.149 159.043 109.232C161.458 107.314 163.245 104.793 164.405 101.668C165.565 98.5426 166.145 95.1572 166.145 91.5114C166.145 87.8655 165.565 84.4683 164.405 81.3196C163.245 78.1709 161.458 75.6259 159.043 73.6847C156.628 71.7434 153.551 70.7727 149.81 70.7727C146.069 70.7727 142.992 71.7434 140.577 73.6847C138.162 75.6259 136.375 78.1709 135.215 81.3196C134.055 84.4683 133.475 87.8655 133.475 91.5114C133.475 95.1572 134.055 98.5426 135.215 101.668C136.375 104.793 138.162 107.314 140.577 109.232C142.992 111.149 146.069 112.108 149.81 112.108ZM202.915 119.636C198.37 119.636 194.357 118.488 190.877 116.192C187.397 113.872 184.674 110.605 182.71 106.391C180.745 102.153 179.762 97.1458 179.762 91.3693C179.762 85.6402 180.745 80.6686 182.71 76.4545C184.674 72.2405 187.409 68.9853 190.913 66.6889C194.416 64.3925 198.465 63.2443 203.058 63.2443C206.609 63.2443 209.414 63.8362 211.474 65.0199C213.557 66.1799 215.143 67.5057 216.232 68.9972C217.345 70.465 218.209 71.6723 218.825 72.6193H219.535V45.7727H227.915V118.5H219.819V110.119H218.825C218.209 111.114 217.333 112.368 216.197 113.884C215.06 115.375 213.439 116.713 211.332 117.896C209.225 119.056 206.419 119.636 202.915 119.636ZM204.052 112.108C207.414 112.108 210.254 111.232 212.575 109.48C214.895 107.705 216.658 105.254 217.866 102.129C219.073 98.9806 219.677 95.3466 219.677 91.2273C219.677 87.1553 219.085 83.5923 217.901 80.5384C216.718 77.4607 214.966 75.0696 212.646 73.3651C210.326 71.6368 207.461 70.7727 204.052 70.7727C200.501 70.7727 197.541 71.6842 195.174 73.5071C192.83 75.3063 191.067 77.7566 189.883 80.858C188.723 83.9356 188.143 87.392 188.143 91.2273C188.143 95.1098 188.735 98.6373 189.918 101.81C191.126 104.958 192.901 107.468 195.245 109.338C197.612 111.185 200.548 112.108 204.052 112.108ZM262.298 119.636C257.042 119.636 252.508 118.476 248.697 116.156C244.909 113.812 241.985 110.545 239.925 106.355C237.889 102.141 236.871 97.2405 236.871 91.6534C236.871 86.0663 237.889 81.142 239.925 76.8807C241.985 72.5956 244.85 69.2576 248.519 66.8665C252.212 64.4517 256.521 63.2443 261.445 63.2443C264.286 63.2443 267.092 63.7178 269.862 64.6648C272.631 65.6117 275.153 67.1506 277.425 69.2812C279.698 71.3883 281.509 74.1818 282.859 77.6619C284.208 81.142 284.883 85.4271 284.883 90.517V94.0682H242.837V86.8239H276.36C276.36 83.7462 275.745 81 274.513 78.5852C273.306 76.1705 271.578 74.2647 269.329 72.8679C267.103 71.4711 264.476 70.7727 261.445 70.7727C258.107 70.7727 255.219 71.6013 252.781 73.2585C250.366 74.892 248.507 77.0227 247.205 79.6506C245.903 82.2784 245.252 85.0956 245.252 88.1023V92.9318C245.252 97.0511 245.962 100.543 247.383 103.408C248.827 106.249 250.827 108.415 253.384 109.906C255.941 111.374 258.912 112.108 262.298 112.108C264.499 112.108 266.488 111.8 268.263 111.185C270.063 110.545 271.613 109.598 272.915 108.344C274.218 107.065 275.224 105.479 275.934 103.585L284.031 105.858C283.178 108.604 281.746 111.019 279.734 113.102C277.721 115.162 275.236 116.772 272.276 117.932C269.317 119.068 265.991 119.636 262.298 119.636Z" fill="black"/>
<path d="M287.375 17.0537L274.251 11.9501L297.789 0.56079L308.711 6.38567L287.375 17.0537Z" stroke="black"/>
<path d="M335.398 17.8494L312.723 7.2678L327.368 2.14191L347.835 11.9964L335.398 17.8494Z" stroke="black"/>
<path d="M297.805 37.0422L275.704 25.6107L287.398 19.7641L309.499 31.1956L297.805 37.0422Z" stroke="black"/>
<line x1="311.102" y1="31.2031" x2="311.102" y2="56.8031" stroke="black"/>
<line x1="335.898" y1="30.3984" x2="335.898" y2="47.9984" stroke="black"/>
<path fill-rule="evenodd" clip-rule="evenodd" d="M286.602 31.2031V47.2031H287.081L287.03 47.3311L311.03 56.9311L311.402 56.0027L287.602 46.4827L287.602 31.2031H286.602Z" fill="black"/>
<line x1="336.379" y1="47.6713" x2="310.779" y2="57.2713" stroke="black"/>
<path d="M310.6 8L334.6 19.2L310.6 30.4L289 19.2L310.6 8Z" fill="black"/>
<path d="M325.773 36.2568L312.65 31.1532L336.187 19.7639L347.109 25.5888L325.773 36.2568Z" stroke="black"/>
</svg>
