<svg width="25" height="18" viewBox="0 0 25 18" fill="none" xmlns="http://www.w3.org/2000/svg">
<path d="M20.7644 1.49175C19.2271 0.800931 17.5798 0.292269 15.8564 0.00127848C15.8248 -0.00444968 15.7932 0.00929875 15.778 0.0379396C15.5662 0.406833 15.331 0.889142 15.1672 1.2672C13.314 0.995686 11.4701 0.995686 9.65429 1.2672C9.48932 0.879977 9.24595 0.406833 9.03302 0.0379396C9.01664 0.0104444 8.98506 -0.00330405 8.95464 0.00127848C7.23242 0.292269 5.58392 0.800931 4.04656 1.49175C4.03369 1.49748 4.02199 1.50664 4.0138 1.51924C0.8876 6.09261 0.0311489 10.5537 0.451173 14.9598C0.453513 14.9816 0.465215 15.0022 0.482765 15.0148C2.54545 16.4984 4.5438 17.3989 6.5047 17.9957C6.53629 18.0049 6.56904 17.9934 6.58893 17.9682C7.05225 17.3484 7.46642 16.6943 7.82093 16.0058C7.84199 15.9657 7.82092 15.9176 7.7788 15.9015C7.12244 15.6575 6.49883 15.3608 5.89745 15.024C5.84948 14.9965 5.84599 14.93 5.88928 14.8979C6.01564 14.8051 6.14199 14.7089 6.2625 14.6115C6.28473 14.5932 6.31514 14.5898 6.34088 14.6012C10.2872 16.3655 14.56 16.3655 18.4596 14.6012C18.4853 14.5886 18.5157 14.5932 18.538 14.6104C18.6585 14.7078 18.7848 14.8051 18.9124 14.8979C18.9556 14.93 18.9533 14.9965 18.9054 15.024C18.3052 15.3677 17.6804 15.6586 17.0228 15.9015C16.9796 15.9176 16.9608 15.9657 16.9819 16.0069C17.3446 16.6931 17.7576 17.3473 18.2127 17.9682C18.2314 17.9946 18.2654 18.006 18.2969 17.9969C20.2672 17.4 22.2655 16.4995 24.3282 15.0159C24.3458 15.0033 24.3575 14.9827 24.3598 14.9621C24.8629 9.86861 23.5174 5.44418 20.7949 1.52154C20.7878 1.50893 20.7773 1.49862 20.7633 1.49289L20.7644 1.49175ZM8.40824 12.2767C7.21953 12.2767 6.24145 11.209 6.24145 9.89725C6.24145 8.58551 7.20198 7.51777 8.40824 7.51777C9.61449 7.51777 10.5949 8.59582 10.575 9.89725C10.575 11.209 9.61449 12.2767 8.40824 12.2767ZM16.4215 12.2767C15.2327 12.2767 14.2547 11.209 14.2547 9.89725C14.2547 8.58551 15.2152 7.51777 16.4215 7.51777C17.6277 7.51777 18.6082 8.59582 18.5883 9.89725C18.5883 11.209 17.6382 12.2767 16.4215 12.2767Z" fill="#0059FF"/>
</svg>
