<svg width="20" height="19" viewBox="0 0 20 19" fill="none" xmlns="http://www.w3.org/2000/svg">
<path d="M1.56771 3.75983C1.12073 3.34113 0.898438 2.82287 0.898438 2.20623C0.898438 1.58959 1.12191 1.04853 1.56771 0.628637C2.01469 0.209945 2.59006 0 3.29501 0C3.99996 0 4.55275 0.209945 4.99855 0.628637C5.44553 1.04733 5.66782 1.574 5.66782 2.20623C5.66782 2.83847 5.44434 3.34113 4.99855 3.75983C4.55157 4.17852 3.98451 4.38846 3.29501 4.38846C2.60552 4.38846 2.01469 4.17852 1.56771 3.75983ZM5.29217 6.16161V18.9983H1.27289V6.16161H5.29217Z" fill="#0059FF"/>
<path d="M18.6718 7.43182C19.548 8.39157 19.9854 9.70884 19.9854 11.386V18.7737H16.1683V11.9067C16.1683 11.0609 15.9507 10.4034 15.5168 9.93557C15.0829 9.46769 14.498 9.23255 13.7657 9.23255C13.0334 9.23255 12.4485 9.46649 12.0146 9.93557C11.5807 10.4034 11.3632 11.0609 11.3632 11.9067V18.7737H7.52344V6.12775H11.3632V7.80492C11.7519 7.24586 12.2762 6.80438 12.9348 6.47927C13.5934 6.15415 14.334 5.99219 15.1578 5.99219C16.6248 5.99219 17.7969 6.47206 18.6718 7.43062V7.43182Z" fill="#0059FF"/>
</svg>
