<svg width="111" height="45" viewBox="0 0 111 45" fill="none" xmlns="http://www.w3.org/2000/svg">
<path d="M6.59595 14.7127L11.2606 22.5963H11.4413L16.1285 14.7127H21.6514L14.5924 26.2782L21.8096 37.8438H16.1849L11.4413 29.9489H11.2606L6.51689 37.8438H0.91485L8.15459 26.2782L1.05038 14.7127H6.59595ZM26.2505 27.4077V37.8438H23.5851V20.4955H26.1602V23.2062H26.3861C26.7927 22.3252 27.4101 21.6174 28.2384 21.0828C29.0666 20.5407 30.1358 20.2696 31.446 20.2696C32.6206 20.2696 33.6484 20.5105 34.5294 20.9924C35.4103 21.4668 36.0955 22.1897 36.585 23.161C37.0744 24.1248 37.3191 25.3446 37.3191 26.8204V37.8438H34.6536V27.0011C34.6536 25.6382 34.2997 24.5765 33.5919 23.8161C32.8841 23.048 31.9128 22.664 30.678 22.664C29.8271 22.664 29.0666 22.8485 28.3965 23.2174C27.7339 23.5864 27.2106 24.1248 26.8266 24.8326C26.4425 25.5403 26.2505 26.3987 26.2505 27.4077ZM47.6473 38.2052C46.0811 38.2052 44.707 37.8325 43.5248 37.087C42.3502 36.3416 41.4316 35.2987 40.769 33.9585C40.1139 32.6182 39.7864 31.052 39.7864 29.26C39.7864 27.4529 40.1139 25.8754 40.769 24.5276C41.4316 23.1798 42.3502 22.1332 43.5248 21.3877C44.707 20.6423 46.0811 20.2696 47.6473 20.2696C49.2135 20.2696 50.5839 20.6423 51.7585 21.3877C52.9406 22.1332 53.8592 23.1798 54.5143 24.5276C55.1769 25.8754 55.5082 27.4529 55.5082 29.26C55.5082 31.052 55.1769 32.6182 54.5143 33.9585C53.8592 35.2987 52.9406 36.3416 51.7585 37.087C50.5839 37.8325 49.2135 38.2052 47.6473 38.2052ZM47.6473 35.8108C48.837 35.8108 49.8158 35.5058 50.5839 34.8959C51.3519 34.286 51.9204 33.4841 52.2893 32.4902C52.6583 31.4963 52.8427 30.4195 52.8427 29.26C52.8427 28.1004 52.6583 27.0199 52.2893 26.0185C51.9204 25.017 51.3519 24.2076 50.5839 23.5902C49.8158 22.9727 48.837 22.664 47.6473 22.664C46.4576 22.664 45.4788 22.9727 44.7107 23.5902C43.9427 24.2076 43.3742 25.017 43.0053 26.0185C42.6363 27.0199 42.4519 28.1004 42.4519 29.26C42.4519 30.4195 42.6363 31.4963 43.0053 32.4902C43.3742 33.4841 43.9427 34.286 44.7107 34.8959C45.4788 35.5058 46.4576 35.8108 47.6473 35.8108ZM64.5376 38.2052C63.0919 38.2052 61.8156 37.84 60.7088 37.1096C59.6019 36.3717 58.736 35.3326 58.111 33.9923C57.4861 32.6445 57.1736 31.052 57.1736 29.2148C57.1736 27.3926 57.4861 25.8114 58.111 24.4711C58.736 23.1309 59.6057 22.0955 60.72 21.3652C61.8344 20.6348 63.122 20.2696 64.5827 20.2696C65.7122 20.2696 66.6045 20.4578 67.2595 20.8343C67.9221 21.2033 68.4266 21.6249 68.773 22.0993C69.1269 22.5661 69.4017 22.9501 69.5975 23.2513H69.8234V14.7127H72.4889V37.8438H69.9137V35.1783H69.5975C69.4017 35.4945 69.1231 35.8936 68.7617 36.3755C68.4003 36.8498 67.8845 37.2753 67.2144 37.6517C66.5442 38.0207 65.652 38.2052 64.5376 38.2052ZM64.899 35.8108C65.9682 35.8108 66.8718 35.5322 67.6097 34.975C68.3476 34.4102 68.9085 33.6309 69.2925 32.637C69.6765 31.6356 69.8685 30.4798 69.8685 29.1696C69.8685 27.8745 69.6803 26.7413 69.3038 25.77C68.9273 24.7911 68.3702 24.0306 67.6322 23.4885C66.8943 22.9389 65.9833 22.664 64.899 22.664C63.7695 22.664 62.8283 22.9539 62.0754 23.5337C61.3299 24.1059 60.769 24.8853 60.3925 25.8716C60.0236 26.8505 59.8391 27.9498 59.8391 29.1696C59.8391 30.4045 60.0273 31.5264 60.4038 32.5354C60.7878 33.5368 61.3525 34.3349 62.098 34.9298C62.8509 35.5171 63.7846 35.8108 64.899 35.8108ZM83.4241 38.2052C81.7526 38.2052 80.3106 37.8362 79.0984 37.0983C77.8936 36.3529 76.9637 35.3138 76.3086 33.9811C75.6611 32.6408 75.3373 31.0821 75.3373 29.3052C75.3373 27.5282 75.6611 25.962 76.3086 24.6067C76.9637 23.2438 77.8748 22.1821 79.0419 21.4216C80.2165 20.6536 81.5869 20.2696 83.1531 20.2696C84.0566 20.2696 84.9489 20.4202 85.8299 20.7214C86.7108 21.0226 87.5127 21.512 88.2356 22.1897C88.9584 22.8598 89.5344 23.7483 89.9636 24.8551C90.3928 25.962 90.6074 27.3249 90.6074 28.9437V30.0732H77.2348V27.7691H87.8967C87.8967 26.7903 87.701 25.9168 87.3094 25.1488C86.9254 24.3808 86.3757 23.7746 85.6604 23.3304C84.9526 22.8861 84.1169 22.664 83.1531 22.664C82.0914 22.664 81.1728 22.9276 80.3972 23.4546C79.6292 23.9742 79.0381 24.6518 78.624 25.4876C78.2099 26.3234 78.0028 27.2194 78.0028 28.1757V29.7118C78.0028 31.0219 78.2287 32.1325 78.6805 33.0436C79.1398 33.9472 79.776 34.6361 80.5892 35.1105C81.4024 35.5773 82.3474 35.8108 83.4241 35.8108C84.1244 35.8108 84.7569 35.7129 85.3216 35.5171C85.8939 35.3138 86.387 35.0126 86.8012 34.6135C87.2153 34.2069 87.5353 33.7025 87.7612 33.1001L90.3363 33.8229C90.0653 34.6964 89.6097 35.4644 88.9697 36.127C88.3297 36.7821 87.5391 37.2941 86.5979 37.663C85.6567 38.0245 84.5988 38.2052 83.4241 38.2052Z" fill="white"/>
<path d="M91.4 5.42394L87.226 3.80074L94.7123 0.17836L98.1859 2.03097L91.4 5.42394Z" stroke="white" stroke-width="0.318051"/>
<path d="M106.672 5.67546L99.4603 2.30997L104.118 0.679671L110.628 3.81391L106.672 5.67546Z" stroke="white" stroke-width="0.318051"/>
<path d="M94.716 11.7831L87.6867 8.14731L91.4058 6.28778L98.435 9.92359L94.716 11.7831Z" stroke="white" stroke-width="0.318051"/>
<line x1="98.9481" y1="9.92188" x2="98.9481" y2="18.064" stroke="white" stroke-width="0.318051"/>
<line x1="106.831" y1="9.67187" x2="106.831" y2="15.2696" stroke="white" stroke-width="0.318051"/>
<path fill-rule="evenodd" clip-rule="evenodd" d="M91.1484 9.92969V15.0185H91.2997L91.2838 15.0584L98.917 18.1117L99.0351 17.8164L91.4665 14.7889L91.4665 9.92969H91.1484Z" fill="white"/>
<line x1="106.986" y1="15.1645" x2="98.8434" y2="18.2178" stroke="white" stroke-width="0.318051"/>
<path d="M98.784 2.54688L106.417 6.10905L98.784 9.67123L91.9141 6.10905L98.784 2.54688Z" fill="white"/>
<path d="M103.611 11.5333L99.437 9.91011L106.923 6.28773L110.397 8.14035L103.611 11.5333Z" stroke="white" stroke-width="0.318051"/>
</svg>
