<svg width="322" height="40" viewBox="0 0 322 40" fill="none" xmlns="http://www.w3.org/2000/svg">
<path d="M67.4716 17.5625C67.4186 17.0663 67.1951 16.6799 66.8011 16.4034C66.411 16.1269 65.9034 15.9886 65.2784 15.9886C64.839 15.9886 64.4621 16.0549 64.1477 16.1875C63.8333 16.3201 63.5928 16.5 63.4261 16.7273C63.2595 16.9545 63.1742 17.214 63.1705 17.5057C63.1705 17.7481 63.2254 17.9583 63.3352 18.1364C63.4489 18.3144 63.6023 18.4659 63.7955 18.5909C63.9886 18.7121 64.2027 18.8144 64.4375 18.8977C64.6723 18.9811 64.9091 19.0511 65.1477 19.108L66.2386 19.3807C66.678 19.483 67.1004 19.6212 67.5057 19.7955C67.9148 19.9697 68.2803 20.1894 68.6023 20.4545C68.928 20.7197 69.1856 21.0398 69.375 21.4148C69.5644 21.7898 69.6591 22.2292 69.6591 22.733C69.6591 23.4148 69.4848 24.0152 69.1364 24.5341C68.7879 25.0492 68.2841 25.4527 67.625 25.7443C66.9697 26.0322 66.1761 26.1761 65.2443 26.1761C64.339 26.1761 63.553 26.036 62.8864 25.7557C62.2235 25.4754 61.7045 25.0663 61.3295 24.5284C60.9583 23.9905 60.7576 23.3352 60.7273 22.5625H62.8011C62.8314 22.9678 62.9564 23.3049 63.1761 23.5739C63.3958 23.8428 63.6818 24.0436 64.0341 24.1761C64.3902 24.3087 64.7879 24.375 65.2273 24.375C65.6856 24.375 66.0871 24.3068 66.4318 24.1705C66.7803 24.0303 67.053 23.8371 67.25 23.5909C67.447 23.3409 67.5473 23.0492 67.5511 22.7159C67.5473 22.4129 67.4583 22.1629 67.2841 21.9659C67.1098 21.7652 66.8655 21.5985 66.5511 21.4659C66.2405 21.3295 65.8769 21.2083 65.4602 21.1023L64.1364 20.7614C63.178 20.5152 62.4205 20.142 61.8636 19.642C61.3106 19.1383 61.0341 18.4697 61.0341 17.6364C61.0341 16.9508 61.2197 16.3504 61.5909 15.8352C61.9659 15.3201 62.4754 14.9205 63.1193 14.6364C63.7633 14.3485 64.4924 14.2045 65.3068 14.2045C66.1326 14.2045 66.8561 14.3485 67.4773 14.6364C68.1023 14.9205 68.5928 15.3163 68.9489 15.8239C69.3049 16.3277 69.4886 16.9072 69.5 17.5625H67.4716ZM75.3111 26.1705C74.4361 26.1705 73.6804 25.9886 73.044 25.625C72.4115 25.2576 71.9247 24.7386 71.5838 24.0682C71.2429 23.3939 71.0724 22.6004 71.0724 21.6875C71.0724 20.7898 71.2429 20.0019 71.5838 19.3239C71.9285 18.642 72.4096 18.1117 73.027 17.733C73.6444 17.3504 74.3698 17.1591 75.2031 17.1591C75.741 17.1591 76.2486 17.2462 76.7259 17.4205C77.2069 17.5909 77.6312 17.8561 77.9986 18.2159C78.3698 18.5758 78.6615 19.0341 78.8736 19.5909C79.0857 20.1439 79.1918 20.803 79.1918 21.5682V22.1989H72.0384V20.8125H77.2202C77.2164 20.4186 77.1312 20.0682 76.9645 19.7614C76.7978 19.4508 76.5649 19.2064 76.2656 19.0284C75.9702 18.8504 75.6255 18.7614 75.2315 18.7614C74.8111 18.7614 74.4418 18.8636 74.1236 19.0682C73.8054 19.2689 73.5573 19.5341 73.3793 19.8636C73.205 20.1894 73.116 20.5473 73.1122 20.9375V22.1477C73.1122 22.6553 73.205 23.0909 73.3906 23.4545C73.5762 23.8144 73.8357 24.0909 74.169 24.2841C74.5024 24.4735 74.8925 24.5682 75.3395 24.5682C75.6387 24.5682 75.9096 24.5265 76.152 24.4432C76.3944 24.3561 76.6046 24.2292 76.7827 24.0625C76.9607 23.8958 77.0952 23.6894 77.1861 23.4432L79.1065 23.6591C78.9853 24.1667 78.7543 24.6098 78.4134 24.9886C78.0762 25.3636 77.6444 25.6553 77.1179 25.8636C76.5914 26.0682 75.9891 26.1705 75.3111 26.1705ZM82.9886 14.3636V26H80.9318V14.3636H82.9886ZM88.9673 26.1705C88.0923 26.1705 87.3366 25.9886 86.7003 25.625C86.0677 25.2576 85.581 24.7386 85.2401 24.0682C84.8991 23.3939 84.7287 22.6004 84.7287 21.6875C84.7287 20.7898 84.8991 20.0019 85.2401 19.3239C85.5848 18.642 86.0658 18.1117 86.6832 17.733C87.3007 17.3504 88.026 17.1591 88.8594 17.1591C89.3973 17.1591 89.9048 17.2462 90.3821 17.4205C90.8632 17.5909 91.2874 17.8561 91.6548 18.2159C92.026 18.5758 92.3177 19.0341 92.5298 19.5909C92.742 20.1439 92.848 20.803 92.848 21.5682V22.1989H85.6946V20.8125H90.8764C90.8726 20.4186 90.7874 20.0682 90.6207 19.7614C90.4541 19.4508 90.2211 19.2064 89.9219 19.0284C89.6264 18.8504 89.2817 18.7614 88.8878 18.7614C88.4673 18.7614 88.098 18.8636 87.7798 19.0682C87.4616 19.2689 87.2135 19.5341 87.0355 19.8636C86.8613 20.1894 86.7723 20.5473 86.7685 20.9375V22.1477C86.7685 22.6553 86.8613 23.0909 87.0469 23.4545C87.2325 23.8144 87.492 24.0909 87.8253 24.2841C88.1586 24.4735 88.5488 24.5682 88.9957 24.5682C89.295 24.5682 89.5658 24.5265 89.8082 24.4432C90.0507 24.3561 90.2609 24.2292 90.4389 24.0625C90.617 23.8958 90.7514 23.6894 90.8423 23.4432L92.7628 23.6591C92.6416 24.1667 92.4105 24.6098 92.0696 24.9886C91.7325 25.3636 91.3007 25.6553 90.7741 25.8636C90.2476 26.0682 89.6454 26.1705 88.9673 26.1705ZM98.3949 26.1705C97.5237 26.1705 96.7756 25.9792 96.1506 25.5966C95.5294 25.214 95.0502 24.6856 94.7131 24.0114C94.3797 23.3333 94.2131 22.553 94.2131 21.6705C94.2131 20.7841 94.3835 20.0019 94.7244 19.3239C95.0653 18.642 95.5464 18.1117 96.1676 17.733C96.7926 17.3504 97.5313 17.1591 98.3835 17.1591C99.0919 17.1591 99.7188 17.2898 100.264 17.5511C100.813 17.8087 101.251 18.1742 101.577 18.6477C101.902 19.1174 102.088 19.6667 102.134 20.2955H100.168C100.088 19.875 99.8987 19.5246 99.5994 19.2443C99.304 18.9602 98.9081 18.8182 98.4119 18.8182C97.9915 18.8182 97.6222 18.9318 97.304 19.1591C96.9858 19.3826 96.7377 19.7045 96.5597 20.125C96.3854 20.5455 96.2983 21.0492 96.2983 21.6364C96.2983 22.2311 96.3854 22.7424 96.5597 23.1705C96.7339 23.5947 96.9782 23.9223 97.2926 24.1534C97.6108 24.3807 97.9839 24.4943 98.4119 24.4943C98.715 24.4943 98.9858 24.4375 99.2244 24.3239C99.4669 24.2064 99.6695 24.0379 99.8324 23.8182C99.9953 23.5985 100.107 23.3314 100.168 23.017H102.134C102.084 23.6345 101.902 24.1818 101.588 24.6591C101.274 25.1326 100.846 25.5038 100.304 25.7727C99.7623 26.0379 99.1259 26.1705 98.3949 26.1705ZM108.18 17.2727V18.8636H103.163V17.2727H108.18ZM104.402 15.1818H106.459V23.375C106.459 23.6515 106.5 23.8636 106.584 24.0114C106.671 24.1553 106.785 24.2538 106.925 24.3068C107.065 24.3598 107.22 24.3864 107.391 24.3864C107.519 24.3864 107.637 24.3769 107.743 24.358C107.853 24.339 107.936 24.322 107.993 24.3068L108.339 25.9148C108.23 25.9527 108.072 25.9943 107.868 26.0398C107.667 26.0852 107.421 26.1117 107.129 26.1193C106.614 26.1345 106.15 26.0568 105.737 25.8864C105.324 25.7121 104.997 25.4432 104.754 25.0795C104.516 24.7159 104.398 24.2614 104.402 23.7159V15.1818ZM116.381 26.1761C115.828 26.1761 115.33 26.0777 114.886 25.8807C114.447 25.6799 114.098 25.3845 113.841 24.9943C113.587 24.6042 113.46 24.1231 113.46 23.5511C113.46 23.0587 113.551 22.6515 113.733 22.3295C113.915 22.0076 114.163 21.75 114.477 21.5568C114.792 21.3636 115.146 21.2178 115.54 21.1193C115.938 21.017 116.348 20.9432 116.773 20.8977C117.284 20.8447 117.699 20.7973 118.017 20.7557C118.335 20.7102 118.566 20.642 118.71 20.5511C118.858 20.4564 118.932 20.3106 118.932 20.1136V20.0795C118.932 19.6515 118.805 19.3201 118.551 19.0852C118.297 18.8504 117.932 18.733 117.455 18.733C116.951 18.733 116.551 18.8428 116.256 19.0625C115.964 19.2822 115.767 19.5417 115.665 19.8409L113.744 19.5682C113.896 19.0379 114.146 18.5947 114.494 18.2386C114.843 17.8788 115.269 17.6098 115.773 17.4318C116.277 17.25 116.833 17.1591 117.443 17.1591C117.864 17.1591 118.282 17.2083 118.699 17.3068C119.116 17.4053 119.496 17.5682 119.841 17.7955C120.186 18.0189 120.462 18.3239 120.67 18.7102C120.883 19.0966 120.989 19.5795 120.989 20.1591V26H119.011V24.8011H118.943C118.818 25.0436 118.642 25.2708 118.415 25.483C118.191 25.6913 117.909 25.8598 117.568 25.9886C117.231 26.1136 116.835 26.1761 116.381 26.1761ZM116.915 24.6648C117.328 24.6648 117.686 24.5833 117.989 24.4205C118.292 24.2538 118.525 24.0341 118.688 23.7614C118.854 23.4886 118.938 23.1913 118.938 22.8693V21.8409C118.873 21.8939 118.763 21.9432 118.608 21.9886C118.456 22.0341 118.286 22.0739 118.097 22.108C117.907 22.142 117.72 22.1723 117.534 22.1989C117.348 22.2254 117.188 22.2481 117.051 22.267C116.744 22.3087 116.47 22.3769 116.227 22.4716C115.985 22.5663 115.794 22.6989 115.653 22.8693C115.513 23.036 115.443 23.2519 115.443 23.517C115.443 23.8958 115.581 24.1818 115.858 24.375C116.134 24.5682 116.487 24.6648 116.915 24.6648ZM131.384 17.2727V18.8636H126.366V17.2727H131.384ZM127.605 15.1818H129.662V23.375C129.662 23.6515 129.704 23.8636 129.787 24.0114C129.874 24.1553 129.988 24.2538 130.128 24.3068C130.268 24.3598 130.423 24.3864 130.594 24.3864C130.723 24.3864 130.84 24.3769 130.946 24.358C131.056 24.339 131.139 24.322 131.196 24.3068L131.543 25.9148C131.433 25.9527 131.276 25.9943 131.071 26.0398C130.87 26.0852 130.624 26.1117 130.332 26.1193C129.817 26.1345 129.353 26.0568 128.94 25.8864C128.527 25.7121 128.2 25.4432 127.957 25.0795C127.719 24.7159 127.601 24.2614 127.605 23.7159V15.1818ZM136.874 26.1705C135.999 26.1705 135.243 25.9886 134.607 25.625C133.974 25.2576 133.487 24.7386 133.146 24.0682C132.805 23.3939 132.635 22.6004 132.635 21.6875C132.635 20.7898 132.805 20.0019 133.146 19.3239C133.491 18.642 133.972 18.1117 134.589 17.733C135.207 17.3504 135.932 17.1591 136.766 17.1591C137.304 17.1591 137.811 17.2462 138.288 17.4205C138.769 17.5909 139.194 17.8561 139.561 18.2159C139.932 18.5758 140.224 19.0341 140.436 19.5909C140.648 20.1439 140.754 20.803 140.754 21.5682V22.1989H133.601V20.8125H138.783C138.779 20.4186 138.694 20.0682 138.527 19.7614C138.36 19.4508 138.127 19.2064 137.828 19.0284C137.533 18.8504 137.188 18.7614 136.794 18.7614C136.374 18.7614 136.004 18.8636 135.686 19.0682C135.368 19.2689 135.12 19.5341 134.942 19.8636C134.768 20.1894 134.679 20.5473 134.675 20.9375V22.1477C134.675 22.6553 134.768 23.0909 134.953 23.4545C135.139 23.8144 135.398 24.0909 135.732 24.2841C136.065 24.4735 136.455 24.5682 136.902 24.5682C137.201 24.5682 137.472 24.5265 137.714 24.4432C137.957 24.3561 138.167 24.2292 138.345 24.0625C138.523 23.8958 138.658 23.6894 138.749 23.4432L140.669 23.6591C140.548 24.1667 140.317 24.6098 139.976 24.9886C139.639 25.3636 139.207 25.6553 138.68 25.8636C138.154 26.0682 137.552 26.1705 136.874 26.1705ZM142.494 26V17.2727H144.46V18.7557H144.562C144.744 18.2557 145.045 17.8655 145.466 17.5852C145.886 17.3011 146.388 17.1591 146.972 17.1591C147.562 17.1591 148.061 17.303 148.466 17.5909C148.875 17.875 149.163 18.2633 149.33 18.7557H149.42C149.614 18.2708 149.939 17.8845 150.398 17.5966C150.86 17.3049 151.407 17.1591 152.04 17.1591C152.843 17.1591 153.498 17.4129 154.006 17.9205C154.513 18.428 154.767 19.1686 154.767 20.142V26H152.705V20.4602C152.705 19.9186 152.561 19.5227 152.273 19.2727C151.985 19.0189 151.633 18.892 151.216 18.892C150.72 18.892 150.331 19.0473 150.051 19.358C149.775 19.6648 149.636 20.0644 149.636 20.5568V26H147.619V20.375C147.619 19.9242 147.483 19.5644 147.21 19.2955C146.941 19.0265 146.589 18.892 146.153 18.892C145.858 18.892 145.589 18.9678 145.347 19.1193C145.104 19.267 144.911 19.4773 144.767 19.75C144.623 20.0189 144.551 20.3333 144.551 20.6932V26H142.494ZM156.854 29.2727V17.2727H158.876V18.7159H158.996C159.102 18.5038 159.251 18.2784 159.445 18.0398C159.638 17.7973 159.899 17.5909 160.229 17.4205C160.558 17.2462 160.979 17.1591 161.49 17.1591C162.164 17.1591 162.772 17.3314 163.314 17.6761C163.859 18.017 164.291 18.5227 164.609 19.1932C164.931 19.8598 165.092 20.678 165.092 21.6477C165.092 22.6061 164.935 23.4205 164.621 24.0909C164.306 24.7614 163.878 25.2727 163.337 25.625C162.795 25.9773 162.181 26.1534 161.496 26.1534C160.996 26.1534 160.581 26.0701 160.251 25.9034C159.922 25.7367 159.657 25.536 159.456 25.3011C159.259 25.0625 159.106 24.8371 158.996 24.625H158.911V29.2727H156.854ZM158.871 21.6364C158.871 22.2008 158.95 22.6951 159.109 23.1193C159.272 23.5436 159.505 23.875 159.808 24.1136C160.115 24.3485 160.486 24.4659 160.922 24.4659C161.376 24.4659 161.757 24.3447 162.064 24.1023C162.371 23.8561 162.602 23.5208 162.757 23.0966C162.916 22.6686 162.996 22.1818 162.996 21.6364C162.996 21.0947 162.918 20.6136 162.763 20.1932C162.607 19.7727 162.376 19.4432 162.07 19.2045C161.763 18.9659 161.38 18.8466 160.922 18.8466C160.482 18.8466 160.109 18.9621 159.803 19.1932C159.496 19.4242 159.263 19.7481 159.104 20.1648C158.948 20.5814 158.871 21.072 158.871 21.6364ZM168.911 14.3636V26H166.854V14.3636H168.911ZM173.537 26.1761C172.984 26.1761 172.486 26.0777 172.043 25.8807C171.603 25.6799 171.255 25.3845 170.997 24.9943C170.743 24.6042 170.616 24.1231 170.616 23.5511C170.616 23.0587 170.707 22.6515 170.889 22.3295C171.071 22.0076 171.319 21.75 171.634 21.5568C171.948 21.3636 172.302 21.2178 172.696 21.1193C173.094 21.017 173.505 20.9432 173.929 20.8977C174.44 20.8447 174.855 20.7973 175.173 20.7557C175.491 20.7102 175.723 20.642 175.866 20.5511C176.014 20.4564 176.088 20.3106 176.088 20.1136V20.0795C176.088 19.6515 175.961 19.3201 175.707 19.0852C175.454 18.8504 175.088 18.733 174.611 18.733C174.107 18.733 173.707 18.8428 173.412 19.0625C173.12 19.2822 172.923 19.5417 172.821 19.8409L170.901 19.5682C171.052 19.0379 171.302 18.5947 171.651 18.2386C171.999 17.8788 172.425 17.6098 172.929 17.4318C173.433 17.25 173.99 17.1591 174.599 17.1591C175.02 17.1591 175.438 17.2083 175.855 17.3068C176.272 17.4053 176.652 17.5682 176.997 17.7955C177.342 18.0189 177.618 18.3239 177.827 18.7102C178.039 19.0966 178.145 19.5795 178.145 20.1591V26H176.168V24.8011H176.099C175.974 25.0436 175.798 25.2708 175.571 25.483C175.348 25.6913 175.065 25.8598 174.724 25.9886C174.387 26.1136 173.991 26.1761 173.537 26.1761ZM174.071 24.6648C174.484 24.6648 174.842 24.5833 175.145 24.4205C175.448 24.2538 175.681 24.0341 175.844 23.7614C176.01 23.4886 176.094 23.1913 176.094 22.8693V21.8409C176.029 21.8939 175.92 21.9432 175.764 21.9886C175.613 22.0341 175.442 22.0739 175.253 22.108C175.063 22.142 174.876 22.1723 174.69 22.1989C174.505 22.2254 174.344 22.2481 174.207 22.267C173.901 22.3087 173.626 22.3769 173.384 22.4716C173.141 22.5663 172.95 22.6989 172.81 22.8693C172.67 23.036 172.599 23.2519 172.599 23.517C172.599 23.8958 172.738 24.1818 173.014 24.375C173.291 24.5682 173.643 24.6648 174.071 24.6648ZM184.571 17.2727V18.8636H179.554V17.2727H184.571ZM180.793 15.1818H182.849V23.375C182.849 23.6515 182.891 23.8636 182.974 24.0114C183.062 24.1553 183.175 24.2538 183.315 24.3068C183.455 24.3598 183.611 24.3864 183.781 24.3864C183.91 24.3864 184.027 24.3769 184.134 24.358C184.243 24.339 184.327 24.322 184.384 24.3068L184.73 25.9148C184.62 25.9527 184.463 25.9943 184.259 26.0398C184.058 26.0852 183.812 26.1117 183.52 26.1193C183.005 26.1345 182.541 26.0568 182.128 25.8864C181.715 25.7121 181.387 25.4432 181.145 25.0795C180.906 24.7159 180.789 24.2614 180.793 23.7159V15.1818ZM190.061 26.1705C189.186 26.1705 188.43 25.9886 187.794 25.625C187.161 25.2576 186.675 24.7386 186.334 24.0682C185.993 23.3939 185.822 22.6004 185.822 21.6875C185.822 20.7898 185.993 20.0019 186.334 19.3239C186.679 18.642 187.16 18.1117 187.777 17.733C188.394 17.3504 189.12 17.1591 189.953 17.1591C190.491 17.1591 190.999 17.2462 191.476 17.4205C191.957 17.5909 192.381 17.8561 192.749 18.2159C193.12 18.5758 193.411 19.0341 193.624 19.5909C193.836 20.1439 193.942 20.803 193.942 21.5682V22.1989H186.788V20.8125H191.97C191.966 20.4186 191.881 20.0682 191.714 19.7614C191.548 19.4508 191.315 19.2064 191.016 19.0284C190.72 18.8504 190.375 18.7614 189.982 18.7614C189.561 18.7614 189.192 18.8636 188.874 19.0682C188.555 19.2689 188.307 19.5341 188.129 19.8636C187.955 20.1894 187.866 20.5473 187.862 20.9375V22.1477C187.862 22.6553 187.955 23.0909 188.141 23.4545C188.326 23.8144 188.586 24.0909 188.919 24.2841C189.252 24.4735 189.643 24.5682 190.089 24.5682C190.389 24.5682 190.66 24.5265 190.902 24.4432C191.144 24.3561 191.355 24.2292 191.533 24.0625C191.711 23.8958 191.845 23.6894 191.936 23.4432L193.857 23.6591C193.735 24.1667 193.504 24.6098 193.163 24.9886C192.826 25.3636 192.394 25.6553 191.868 25.8636C191.341 26.0682 190.739 26.1705 190.061 26.1705Z" fill="black"/>
</svg>
