<svg width="16" height="16" viewBox="0 0 16 16" fill="none" xmlns="http://www.w3.org/2000/svg">
<path fill-rule="evenodd" clip-rule="evenodd" d="M3.5312 3.5312C3.79155 3.27085 4.21366 3.27085 4.47401 3.5312L8.0026 7.0598L11.5312 3.5312C11.7915 3.27085 12.2137 3.27085 12.474 3.5312C12.7344 3.79155 12.7344 4.21366 12.474 4.47401L8.94541 8.0026L12.474 11.5312C12.7344 11.7915 12.7344 12.2137 12.474 12.474C12.2137 12.7344 11.7915 12.7344 11.5312 12.474L8.0026 8.94541L4.47401 12.474C4.21366 12.7344 3.79155 12.7344 3.5312 12.474C3.27085 12.2137 3.27085 11.7915 3.5312 11.5312L7.0598 8.0026L3.5312 4.47401C3.27085 4.21366 3.27085 3.79155 3.5312 3.5312Z" fill="#4d4d4d"/>
</svg>
