<svg width="48" height="48" viewBox="0 0 48 48" fill="none" xmlns="http://www.w3.org/2000/svg">
<rect width="48" height="48" rx="24" fill="#0059FF"/>
<path fill-rule="evenodd" clip-rule="evenodd" d="M26.9056 28.3199C25.551 29.3729 23.8487 30 22 30C17.5817 30 14 26.4183 14 22C14 17.5817 17.5817 14 22 14C26.4183 14 30 17.5817 30 22C30 23.8487 29.3729 25.551 28.3199 26.9056L33.7071 32.2929C34.0976 32.6834 34.0976 33.3166 33.7071 33.7071C33.3166 34.0976 32.6834 34.0976 32.2929 33.7071L26.9056 28.3199ZM28 22C28 25.3137 25.3137 28 22 28C18.6863 28 16 25.3137 16 22C16 18.6863 18.6863 16 22 16C25.3137 16 28 18.6863 28 22Z" fill="#FAFAFA"/>
</svg>
