<svg width="14" height="14" viewBox="0 0 14 14" fill="none" xmlns="http://www.w3.org/2000/svg">
<path d="M5.65056 1.1H5.65007C4.75015 1.1 3.87045 1.36685 3.1222 1.86681C2.37395 2.36677 1.79075 3.07738 1.44637 3.90879C1.10199 4.74019 1.01188 5.65505 1.18745 6.53766C1.36301 7.42028 1.79636 8.23101 2.4327 8.86734C3.06903 9.50366 3.87978 9.93701 4.7624 10.1126C5.64502 10.2881 6.55988 10.198 7.39129 9.85365C8.2227 9.50927 8.93332 8.92609 9.43329 8.17785C9.93326 7.4296 10.2001 6.54991 10.2001 5.65L10.2001 5.6495C10.1989 4.44327 9.71919 3.28678 8.86625 2.43385C8.0133 1.58091 6.85681 1.10121 5.65056 1.1ZM5.6495 10.55C4.68056 10.5499 3.73339 10.2625 2.92773 9.7242C2.12192 9.18578 1.49387 8.4205 1.123 7.52514C0.752123 6.62979 0.655086 5.64456 0.844156 4.69406C1.03323 3.74355 1.49991 2.87046 2.1852 2.18518C2.87048 1.4999 3.74359 1.03322 4.69411 0.844155C5.64463 0.655087 6.62987 0.752123 7.52524 1.12299C8.42061 1.49386 9.18589 2.12191 9.72432 2.92771C10.2626 3.73335 10.55 4.68051 10.5501 5.64944C10.5487 6.9487 10.0319 8.19432 9.11316 9.11304C8.19443 10.0318 6.94878 10.5485 5.6495 10.55Z" fill="black" stroke="black"/>
</svg>
