<svg width="12" height="12" viewBox="0 0 12 12" fill="none" xmlns="http://www.w3.org/2000/svg">
<mask id="path-1-inside-1_1245_1830" fill="white">
<path d="M6.71314 6.00614L9.35964 3.35964C9.4074 3.31352 9.44549 3.25835 9.47169 3.19735C9.4979 3.13634 9.51169 3.07073 9.51227 3.00434C9.51285 2.93796 9.5002 2.87212 9.47506 2.81067C9.44991 2.74922 9.41279 2.69339 9.36584 2.64645C9.31889 2.5995 9.26307 2.56237 9.20162 2.53723C9.14017 2.51209 9.07433 2.49944 9.00794 2.50002C8.94155 2.5006 8.87594 2.51439 8.81494 2.54059C8.75394 2.5668 8.69877 2.60489 8.65264 2.65264L6.00614 5.29914L3.35964 2.65264C3.26534 2.56157 3.13904 2.51117 3.00794 2.51231C2.87685 2.51345 2.75144 2.56603 2.65873 2.65873C2.56603 2.75144 2.51345 2.87685 2.51231 3.00794C2.51117 3.13904 2.56157 3.26534 2.65264 3.35964L5.29914 6.00614L2.65264 8.65264C2.60489 8.69877 2.5668 8.75394 2.54059 8.81494C2.51439 8.87594 2.5006 8.94155 2.50002 9.00794C2.49944 9.07433 2.51209 9.14017 2.53723 9.20162C2.56237 9.26307 2.5995 9.31889 2.64645 9.36584C2.69339 9.41279 2.74922 9.44991 2.81067 9.47506C2.87212 9.5002 2.93796 9.51285 3.00434 9.51227C3.07073 9.51169 3.13634 9.4979 3.19735 9.47169C3.25835 9.44549 3.31352 9.4074 3.35964 9.35964L6.00614 6.71314L8.65264 9.35964C8.74694 9.45072 8.87325 9.50112 9.00434 9.49998C9.13544 9.49884 9.26085 9.44626 9.35355 9.35355C9.44626 9.26085 9.49884 9.13544 9.49998 9.00434C9.50112 8.87325 9.45072 8.74694 9.35964 8.65264L6.71314 6.00614Z"/>
</mask>
<path d="M6.71314 6.00614L9.35964 3.35964C9.4074 3.31352 9.44549 3.25835 9.47169 3.19735C9.4979 3.13634 9.51169 3.07073 9.51227 3.00434C9.51285 2.93796 9.5002 2.87212 9.47506 2.81067C9.44991 2.74922 9.41279 2.69339 9.36584 2.64645C9.31889 2.5995 9.26307 2.56237 9.20162 2.53723C9.14017 2.51209 9.07433 2.49944 9.00794 2.50002C8.94155 2.5006 8.87594 2.51439 8.81494 2.54059C8.75394 2.5668 8.69877 2.60489 8.65264 2.65264L6.00614 5.29914L3.35964 2.65264C3.26534 2.56157 3.13904 2.51117 3.00794 2.51231C2.87685 2.51345 2.75144 2.56603 2.65873 2.65873C2.56603 2.75144 2.51345 2.87685 2.51231 3.00794C2.51117 3.13904 2.56157 3.26534 2.65264 3.35964L5.29914 6.00614L2.65264 8.65264C2.60489 8.69877 2.5668 8.75394 2.54059 8.81494C2.51439 8.87594 2.5006 8.94155 2.50002 9.00794C2.49944 9.07433 2.51209 9.14017 2.53723 9.20162C2.56237 9.26307 2.5995 9.31889 2.64645 9.36584C2.69339 9.41279 2.74922 9.44991 2.81067 9.47506C2.87212 9.5002 2.93796 9.51285 3.00434 9.51227C3.07073 9.51169 3.13634 9.4979 3.19735 9.47169C3.25835 9.44549 3.31352 9.4074 3.35964 9.35964L6.00614 6.71314L8.65264 9.35964C8.74694 9.45072 8.87325 9.50112 9.00434 9.49998C9.13544 9.49884 9.26085 9.44626 9.35355 9.35355C9.44626 9.26085 9.49884 9.13544 9.49998 9.00434C9.50112 8.87325 9.45072 8.74694 9.35964 8.65264L6.71314 6.00614Z" fill="#777E90"/>
<path d="M6.71314 6.00614L4.59182 3.88482L2.4705 6.00614L4.59182 8.12746L6.71314 6.00614ZM9.35964 3.35964L7.27551 1.20178L7.25676 1.21989L7.23832 1.23832L9.35964 3.35964ZM8.65264 2.65264L10.774 4.77396L10.7924 4.75553L10.8105 4.73678L8.65264 2.65264ZM6.00614 5.29914L3.88482 7.42046L6.00614 9.54179L8.12746 7.42046L6.00614 5.29914ZM3.35964 2.65264L5.48096 0.531324L5.46253 0.51289L5.44378 0.49478L3.35964 2.65264ZM2.65264 3.35964L0.49478 5.44378L0.51289 5.46253L0.531324 5.48096L2.65264 3.35964ZM5.29914 6.00614L7.42046 8.12746L9.54179 6.00614L7.42046 3.88482L5.29914 6.00614ZM2.65264 8.65264L4.73678 10.8105L4.75553 10.7924L4.77396 10.774L2.65264 8.65264ZM3.35964 9.35964L1.23832 7.23832L1.21989 7.25676L1.20178 7.27551L3.35964 9.35964ZM6.00614 6.71314L8.12746 4.59182L6.00614 2.4705L3.88482 4.59182L6.00614 6.71314ZM8.65264 9.35964L6.53132 11.481L6.54976 11.4994L6.56851 11.5175L8.65264 9.35964ZM9.35964 8.65264L11.5175 6.56851L11.4994 6.54976L11.481 6.53132L9.35964 8.65264ZM8.83446 8.12746L11.481 5.48096L7.23832 1.23832L4.59182 3.88482L8.83446 8.12746ZM11.4438 5.51751C11.7781 5.19463 12.0447 4.80842 12.2281 4.38142L6.71525 2.01327C6.84627 1.70827 7.03672 1.43241 7.27551 1.20178L11.4438 5.51751ZM12.2281 4.38142C12.4116 3.95443 12.5081 3.49516 12.5122 3.03041L6.51238 2.97828C6.51527 2.64631 6.58424 2.31826 6.71525 2.01327L12.2281 4.38142ZM12.5122 3.03041C12.5162 2.56569 12.4276 2.10481 12.2517 1.67467L6.69845 3.94666C6.57275 3.63942 6.5095 3.31022 6.51238 2.97828L12.5122 3.03041ZM12.2517 1.67467C12.0757 1.24452 11.8158 0.853743 11.4872 0.525126L7.24452 4.76777C7.0098 4.53304 6.82416 4.25392 6.69845 3.94666L12.2517 1.67467ZM11.4872 0.525126C11.1585 0.196498 10.7678 -0.0633862 10.3376 -0.239367L8.06562 5.31383C7.75839 5.18813 7.47926 5.0025 7.24452 4.76777L11.4872 0.525126ZM10.3376 -0.239367C9.90748 -0.41535 9.4466 -0.503906 8.98188 -0.499868L9.03401 5.49991C8.70206 5.50279 8.37286 5.43954 8.06562 5.31383L10.3376 -0.239367ZM8.98188 -0.499868C8.51715 -0.49583 8.05788 -0.399278 7.63086 -0.215846L9.99902 5.29703C9.69401 5.42806 9.36596 5.49702 9.03401 5.49991L8.98188 -0.499868ZM7.63086 -0.215846C7.20386 -0.0324171 6.81765 0.234219 6.49478 0.568509L10.8105 4.73678C10.5799 4.97556 10.304 5.16601 9.99902 5.29703L7.63086 -0.215846ZM6.53132 0.531324L3.88482 3.17782L8.12746 7.42046L10.774 4.77396L6.53132 0.531324ZM8.12746 3.17782L5.48096 0.531324L1.23832 4.77396L3.88482 7.42046L8.12746 3.17782ZM5.44378 0.49478C4.78367 -0.142771 3.89957 -0.495554 2.98188 -0.48758L3.03401 5.51219C2.37852 5.51789 1.74701 5.2659 1.27551 4.81051L5.44378 0.49478ZM2.98188 -0.48758C2.06418 -0.479605 1.18634 -0.111512 0.537415 0.537415L4.78006 4.78006C4.31654 5.24357 3.68951 5.5065 3.03401 5.51219L2.98188 -0.48758ZM0.537415 0.537415C-0.111512 1.18634 -0.479605 2.06418 -0.48758 2.98188L5.51219 3.03401C5.5065 3.68951 5.24357 4.31654 4.78006 4.78006L0.537415 0.537415ZM-0.48758 2.98188C-0.495554 3.89957 -0.142771 4.78367 0.49478 5.44378L4.81051 1.27551C5.2659 1.74701 5.51789 2.37852 5.51219 3.03401L-0.48758 2.98188ZM0.531324 5.48096L3.17782 8.12746L7.42046 3.88482L4.77396 1.23832L0.531324 5.48096ZM3.17782 3.88482L0.531324 6.53132L4.77396 10.774L7.42046 8.12746L3.17782 3.88482ZM0.568509 6.49478C0.234219 6.81765 -0.0324171 7.20386 -0.215846 7.63086L5.29703 9.99902C5.16601 10.304 4.97556 10.5799 4.73678 10.8105L0.568509 6.49478ZM-0.215846 7.63086C-0.399278 8.05788 -0.49583 8.51715 -0.499868 8.98188L5.49991 9.03401C5.49702 9.36596 5.42806 9.69401 5.29703 9.99902L-0.215846 7.63086ZM-0.499868 8.98188C-0.503906 9.4466 -0.41535 9.90748 -0.239367 10.3376L5.31383 8.06562C5.43954 8.37286 5.50279 8.70206 5.49991 9.03401L-0.499868 8.98188ZM-0.239367 10.3376C-0.0633862 10.7678 0.196498 11.1585 0.525126 11.4872L4.76777 7.24452C5.0025 7.47926 5.18813 7.75839 5.31383 8.06562L-0.239367 10.3376ZM0.525126 11.4872C0.853743 11.8158 1.24452 12.0757 1.67467 12.2517L3.94666 6.69845C4.25392 6.82416 4.53304 7.0098 4.76777 7.24452L0.525126 11.4872ZM1.67467 12.2517C2.10481 12.4276 2.56569 12.5162 3.03041 12.5122L2.97828 6.51238C3.31022 6.5095 3.63942 6.57275 3.94666 6.69845L1.67467 12.2517ZM3.03041 12.5122C3.49516 12.5081 3.95443 12.4116 4.38142 12.2281L2.01327 6.71525C2.31826 6.58424 2.64631 6.51527 2.97828 6.51238L3.03041 12.5122ZM4.38142 12.2281C4.80842 12.0447 5.19463 11.7781 5.51751 11.4438L1.20178 7.27551C1.43241 7.03672 1.70827 6.84627 2.01327 6.71525L4.38142 12.2281ZM5.48096 11.481L8.12746 8.83446L3.88482 4.59182L1.23832 7.23832L5.48096 11.481ZM3.88482 8.83446L6.53132 11.481L10.774 7.23832L8.12746 4.59182L3.88482 8.83446ZM6.56851 11.5175C7.22862 12.1551 8.11273 12.5078 9.03041 12.4999L8.97828 6.50009C9.63377 6.4944 10.2653 6.74638 10.7368 7.20178L6.56851 11.5175ZM9.03041 12.4999C9.94811 12.4919 10.8259 12.1238 11.4749 11.4749L7.23223 7.23223C7.69575 6.76872 8.32278 6.50579 8.97828 6.50009L9.03041 12.4999ZM11.4749 11.4749C12.1238 10.8259 12.4919 9.94811 12.4999 9.03041L6.50009 8.97828C6.50579 8.32278 6.76872 7.69575 7.23223 7.23223L11.4749 11.4749ZM12.4999 9.03041C12.5078 8.11273 12.1551 7.22862 11.5175 6.56851L7.20178 10.7368C6.74638 10.2653 6.4944 9.63377 6.50009 8.97828L12.4999 9.03041ZM11.481 6.53132L8.83446 3.88482L4.59182 8.12746L7.23832 10.774L11.481 6.53132Z" fill="#777E90" mask="url(#path-1-inside-1_1245_1830)"/>
</svg>
