<svg width="21" height="21" viewBox="0 0 21 21" fill="none" xmlns="http://www.w3.org/2000/svg">
<path d="M10.5026 20.9193C16.2556 20.9193 20.9193 16.2556 20.9193 10.5026C20.9193 4.74964 16.2556 0.0859375 10.5026 0.0859375C4.74964 0.0859375 0.0859375 4.74964 0.0859375 10.5026C0.0859375 16.2556 4.74964 20.9193 10.5026 20.9193Z" fill="#0059FF"/>
<path d="M14.1796 10.7736C14.5405 10.1502 15.1229 10.1502 15.4838 10.7736L17.7311 14.7188C18.092 15.3422 17.7967 15.8507 17.075 15.8507H12.5474C11.8338 15.8507 11.5385 15.3422 11.8912 14.7188L14.1796 10.7736ZM9.8325 3.17846C10.1934 2.5551 10.7675 2.5551 11.1284 3.17846L11.6288 4.08069L12.8099 6.15582C13.0969 6.74637 13.0969 7.44355 12.8099 8.0341L8.84825 14.8993C8.48736 15.457 7.88861 15.8097 7.22424 15.8507H3.93519C3.21341 15.8507 2.91813 15.3504 3.27903 14.7188L9.8325 3.17846Z" fill="white"/>
</svg>
