<svg width="275" height="276" viewBox="0 0 275 276" fill="none" xmlns="http://www.w3.org/2000/svg">
<path d="M137.5 0.617188C119.443 0.617188 101.563 4.17374 84.881 11.0837C68.1988 17.9938 53.0409 28.1219 40.2728 40.89C27.5048 53.6581 17.3766 68.8159 10.4666 85.4982C3.55655 102.18 0 120.06 0 138.117C0 156.174 3.55655 174.054 10.4666 190.736C17.3766 207.418 27.5048 222.576 40.2728 235.344C53.0409 248.112 68.1988 258.241 84.881 265.151C101.563 272.061 119.443 275.617 137.5 275.617L137.5 138.117V0.617188Z" fill="#62B2FD"/>
<path d="M137.5 275.617C155.557 275.617 173.437 272.061 190.119 265.151C206.801 258.241 221.959 248.112 234.727 235.344C247.495 222.576 257.623 207.418 264.533 190.736C271.443 174.054 275 156.174 275 138.117L137.5 138.117L137.5 275.617Z" fill="#9BDFC4"/>
<path d="M275 138.117C275 116.418 269.865 95.0274 260.013 75.6935C250.162 56.3596 235.875 39.6317 218.32 26.8773L137.5 138.117L275 138.117Z" fill="#F99BAB"/>
<path d="M163.265 3.0527C183.147 6.84533 201.946 14.9805 218.32 26.8774L137.5 138.117L163.265 3.0527Z" fill="#FFB44F"/>
<path d="M137.5 0.617188C146.146 0.617188 154.772 1.43265 163.265 3.0527L137.5 138.117L137.5 0.617188Z" fill="#9F97F7"/>
</svg>
