<svg width="428" height="175" viewBox="0 0 428 175" fill="none" xmlns="http://www.w3.org/2000/svg">
<circle cx="384.8" cy="37.8" r="7.8" fill="#FBB816"/>
<circle cx="410.8" cy="37.8" r="7.8" fill="#018BD6"/>
<circle cx="397.8" cy="15.8" r="7.8" fill="#EC301E"/>
<path d="M372.519 15.2887L398 0.57735L423.481 15.2887V44.7113L398 59.4226L372.519 44.7113V15.2887Z" stroke="black"/>
<line x1="372.25" y1="15.5669" x2="398.25" y2="30.5669" stroke="black"/>
<line x1="423.257" y1="15.4287" x2="398.257" y2="30.4289" stroke="black"/>
<line x1="398.5" y1="30" x2="398.5" y2="58.8" stroke="black"/>
<path d="M7.1733 146V73.2727H34.446C40.0331 73.2727 44.7206 74.3144 48.5085 76.3977C52.3201 78.4811 55.1965 81.3456 57.1378 84.9915C59.1027 88.6136 60.0852 92.733 60.0852 97.3494C60.0852 102.013 59.1027 106.156 57.1378 109.778C55.1728 113.401 52.2727 116.253 48.4375 118.337C44.6023 120.396 39.8793 121.426 34.2685 121.426H16.1932V110.595H32.4929C35.7599 110.595 38.4351 110.027 40.5185 108.891C42.6018 107.754 44.1406 106.192 45.1349 104.203C46.1529 102.214 46.6619 99.9299 46.6619 97.3494C46.6619 94.7689 46.1529 92.4962 45.1349 90.5312C44.1406 88.5663 42.59 87.0393 40.483 85.9503C38.3996 84.8376 35.7126 84.2812 32.4219 84.2812H20.348V146H7.1733ZM73.9506 166.455C72.1987 166.455 70.5771 166.313 69.0856 166.028C67.6178 165.768 66.4459 165.46 65.57 165.105L68.5529 155.091C70.4232 155.635 72.0922 155.896 73.56 155.872C75.0278 155.848 76.3181 155.387 77.4308 154.487C78.5671 153.611 79.5259 152.143 80.3072 150.084L81.408 147.136L61.6282 91.4545H75.2646L87.8356 132.648H88.4038L101.01 91.4545H114.682L92.8427 152.605C91.8247 155.493 90.4753 157.967 88.7944 160.027C87.1135 162.11 85.0539 163.696 82.6154 164.786C80.2006 165.898 77.3124 166.455 73.9506 166.455ZM145.815 91.4545V101.398H114.458V91.4545H145.815ZM122.2 78.3864H135.055V129.594C135.055 131.322 135.315 132.648 135.836 133.571C136.381 134.471 137.091 135.086 137.967 135.418C138.843 135.749 139.814 135.915 140.879 135.915C141.684 135.915 142.418 135.856 143.081 135.737C143.767 135.619 144.288 135.512 144.643 135.418L146.809 145.467C146.123 145.704 145.14 145.964 143.862 146.249C142.607 146.533 141.068 146.698 139.245 146.746C136.026 146.84 133.126 146.355 130.545 145.29C127.965 144.201 125.917 142.52 124.402 140.247C122.91 137.974 122.176 135.134 122.2 131.724V78.3864ZM165.593 114.04V146H152.738V73.2727H165.309V100.723H165.948C167.227 97.6454 169.203 95.2187 171.879 93.4432C174.577 91.6439 178.01 90.7443 182.177 90.7443C185.965 90.7443 189.267 91.5374 192.085 93.1236C194.902 94.7098 197.08 97.0298 198.619 100.084C200.181 103.138 200.962 106.866 200.962 111.27V146H188.107V113.259C188.107 109.589 187.16 106.736 185.266 104.7C183.396 102.641 180.768 101.611 177.383 101.611C175.11 101.611 173.074 102.108 171.275 103.102C169.499 104.073 168.103 105.482 167.085 107.328C166.09 109.175 165.593 111.412 165.593 114.04ZM209.066 146V91.4545H221.921V146H209.066ZM215.529 83.7131C213.493 83.7131 211.741 83.0384 210.273 81.6889C208.806 80.3158 208.072 78.6705 208.072 76.7528C208.072 74.8116 208.806 73.1662 210.273 71.8168C211.741 70.4437 213.493 69.7571 215.529 69.7571C217.589 69.7571 219.341 70.4437 220.785 71.8168C222.253 73.1662 222.987 74.8116 222.987 76.7528C222.987 78.6705 222.253 80.3158 220.785 81.6889C219.341 83.0384 217.589 83.7131 215.529 83.7131ZM245.836 147.101C242.38 147.101 239.267 146.485 236.497 145.254C233.751 144 231.573 142.153 229.963 139.714C228.377 137.276 227.583 134.269 227.583 130.695C227.583 127.617 228.152 125.072 229.288 123.06C230.424 121.047 231.975 119.438 233.94 118.23C235.905 117.023 238.118 116.111 240.581 115.496C243.066 114.857 245.635 114.395 248.287 114.111C251.483 113.779 254.075 113.483 256.064 113.223C258.052 112.939 259.496 112.513 260.396 111.945C261.319 111.353 261.781 110.441 261.781 109.21V108.997C261.781 106.322 260.988 104.25 259.402 102.783C257.815 101.315 255.531 100.581 252.548 100.581C249.399 100.581 246.902 101.268 245.055 102.641C243.232 104.014 242.001 105.635 241.362 107.506L229.359 105.801C230.306 102.487 231.868 99.7169 234.047 97.4915C236.225 95.2424 238.888 93.5616 242.037 92.4489C245.185 91.3125 248.665 90.7443 252.477 90.7443C255.105 90.7443 257.721 91.0521 260.325 91.6676C262.929 92.2831 265.308 93.3011 267.463 94.7216C269.617 96.1184 271.345 98.0241 272.647 100.439C273.973 102.854 274.636 105.872 274.636 109.494V146H262.278V138.507H261.852C261.071 140.022 259.97 141.443 258.549 142.768C257.153 144.071 255.389 145.124 253.258 145.929C251.151 146.71 248.677 147.101 245.836 147.101ZM249.174 137.655C251.755 137.655 253.992 137.146 255.886 136.128C257.78 135.086 259.236 133.713 260.254 132.009C261.296 130.304 261.816 128.446 261.816 126.433V120.006C261.414 120.337 260.727 120.645 259.757 120.929C258.81 121.213 257.744 121.462 256.561 121.675C255.377 121.888 254.205 122.077 253.045 122.243C251.885 122.409 250.879 122.551 250.027 122.669C248.109 122.929 246.393 123.356 244.877 123.947C243.362 124.539 242.167 125.368 241.291 126.433C240.415 127.475 239.977 128.824 239.977 130.482C239.977 132.849 240.841 134.636 242.569 135.844C244.297 137.051 246.499 137.655 249.174 137.655ZM288.912 58.7273L313.074 96.6108H313.627L337.789 58.7273H347.207L319.125 102.364L347.207 146H337.789L313.627 108.543H313.074L288.912 146H279.494L308.002 102.364L279.494 58.7273H288.912Z" fill="black"/>
</svg>
