<?xml version="1.0" encoding="UTF-8"?><svg id="Layer_1" xmlns="http://www.w3.org/2000/svg" viewBox="0 0 240 210"><defs><style>.cls-1{fill:#4d4d4f;}.cls-1,.cls-2{fill-rule:evenodd;}.cls-2{fill:#00aeef;}</style></defs><path class="cls-2" d="m158.77,105c0-8.18,6.66-14.82,14.88-14.82s14.88,6.63,14.88,14.82-6.66,14.82-14.88,14.82-14.88-6.63-14.88-14.82Zm-39.69,34.02c0-8.18,6.66-14.82,14.88-14.82s14.88,6.63,14.88,14.82-6.66,14.82-14.88,14.82-14.88-6.63-14.88-14.82Zm0-68.04c0-8.18,6.66-14.82,14.88-14.82s14.88,6.63,14.88,14.82-6.66,14.82-14.88,14.82-14.88-6.63-14.88-14.82Zm0,34.02c0-8.18,6.66-14.82,14.88-14.82s14.88,6.63,14.88,14.82-6.66,14.82-14.88,14.82-14.88-6.63-14.88-14.82Zm-39.69,34.02c0-8.18,6.66-14.82,14.88-14.82s14.88,6.63,14.88,14.82-6.66,14.82-14.88,14.82-14.88-6.63-14.88-14.82Zm0-68.04c0-8.18,6.66-14.82,14.88-14.82s14.88,6.63,14.88,14.82-6.66,14.82-14.88,14.82-14.88-6.63-14.88-14.82Zm0,34.02c0-8.18,6.66-14.82,14.88-14.82s14.88,6.63,14.88,14.82-6.66,14.82-14.88,14.82-14.88-6.63-14.88-14.82Zm-39.69,34.02c0-8.18,6.66-14.82,14.88-14.82s14.88,6.63,14.88,14.82-6.66,14.82-14.88,14.82-14.88-6.63-14.88-14.82Zm0-68.04c0-8.18,6.66-14.82,14.88-14.82s14.88,6.63,14.88,14.82-6.66,14.82-14.88,14.82-14.88-6.63-14.88-14.82Zm0,34.02c0-8.18,6.66-14.82,14.88-14.82s14.88,6.63,14.88,14.82-6.66,14.82-14.88,14.82-14.88-6.63-14.88-14.82Zm-39.69,0c0-8.18,6.66-14.82,14.88-14.82s14.88,6.63,14.88,14.82-6.66,14.82-14.88,14.82S0,113.18,0,105Z"/><path class="cls-1" d="m100.34,49.34l27.29-27.83c5.59-5.7,14.65-5.7,20.24,0l71.76,73.17c5.59,5.7,5.59,14.94,0,20.64l-71.76,73.17c-5.59,5.7-14.65,5.7-20.24,0l-24.06-24.53s-6.26-6.69-12.37-.47c-5.84,5.96-.14,12-.14,12l23.51,23.98c12.79,13.05,33.53,13.05,46.33,0l69.49-70.86c12.79-13.04,12.79-34.19,0-47.24L160.92,10.53c-12.79-13.05-33.53-13.05-46.33,0l-25.64,26.14s-3.14,6.54,1.18,10.94c0,0,6.12,5.9,10.21,1.73Z"/></svg>